<svg className="fill-current w-7 h-7 inline-block text-white dark:text-gray-100"  height="25px" version="1.1" viewBox="0 0 25 25" width="25px" xmlns="http://www.w3.org/2000/svg" xmlns:sketch="http://www.bohemiancoding.com/sketch/ns" xmlns:xlink="http://www.w3.org/1999/xlink"><title/><desc/><defs/><g fill="none" fill-rule="evenodd" id="TabBar-Icons" stroke="none" strokeWidth="1"><g fill="#000000" id="Cross-Cricle"><path d="M12.5,25 C19.4035594,25 25,19.4035594 25,12.5 C25,5.59644063 19.4035594,0 12.5,0 C5.59644063,0 0,5.59644063 0,12.5 C0,19.4035594 5.59644063,25 12.5,25 L12.5,25 Z M12.5,24 C18.8512746,24 24,18.8512746 24,12.5 C24,6.14872538 18.8512746,1 12.5,1 C6.14872538,1 1,6.14872538 1,12.5 C1,18.8512746 6.14872538,24 12.5,24 Z M13.2071068,12.5 L18.863961,6.84314575 L18.1568542,6.13603897 L12.5,11.7928932 L6.84314575,6.13603897 L6.13603897,6.84314575 L11.7928932,12.5 L6.13603897,18.1568542 L6.84314575,18.863961 L12.5,13.2071068 L18.1568542,18.863961 L18.863961,18.1568542 L13.2071068,12.5 L13.2071068,12.5 Z" id="Check-Circle"/></g></g></svg></span><span x-on:click="showMenu = !showMenu" x-show="!showMenu" className="w-7 h-7 inline-block text-white dark:text-gray-100"><svg className="fill-current w-7 h-7 inline-block text-white dark:text-gray-100"  height="32px" id="Layer_1" style="enable-background:new 0 0 32 32;" version="1.1" viewBox="0 0 32 32" width="32px" xml:space="preserve" xmlns="http://www.w3.org/2000/svg" xmlns:xlink="http://www.w3.org/1999/xlink"><path d="M4,10h24c1.104,0,2-0.896,2-2s-0.896-2-2-2H4C2.896,6,2,6.896,2,8S2.896,10,4,10z M28,14H4c-1.104,0-2,0.896-2,2  s0.896,2,2,2h24c1.104,0,2-0.896,2-2S29.104,14,28,14z M28,22H4c-1.104,0-2,0.896-2,2s0.896,2,2,2h24c1.104,0,2-0.896,2-2  S29.104,22,28,22z"/></svg>
