<?xml version="1.0" encoding="UTF-8" standalone="no"?>
<svg
   xmlns:dc="http://purl.org/dc/elements/1.1/"
   xmlns:cc="http://creativecommons.org/ns#"
   xmlns:rdf="http://www.w3.org/1999/02/22-rdf-syntax-ns#"
   xmlns:svg="http://www.w3.org/2000/svg"
   xmlns="http://www.w3.org/2000/svg"
   viewBox="0 0 2006.2933 755.90533"
   height="755.90533"
   width="2006.2933"
   xml:space="preserve"
   id="svg2"
   version="1.1"><metadata
     id="metadata8"><rdf:RDF><cc:Work
         rdf:about=""><dc:format>image/svg+xml</dc:format><dc:type
           rdf:resource="http://purl.org/dc/dcmitype/StillImage" /></cc:Work></rdf:RDF></metadata><defs
     id="defs6"><clipPath
       id="clipPath26"
       clipPathUnits="userSpaceOnUse"><path
         id="path24"
         d="M 0,566.929 H 1504.715 V 0 H 0 Z" /></clipPath></defs><g
     transform="matrix(1.3333333,0,0,-1.3333333,0,755.90533)"
     id="g10"><g
       transform="translate(567.0128,262.2572)"
       id="g12"><path
         id="path14"
         style="fill:#f39415;fill-opacity:1;fill-rule:nonzero;stroke:none"
         d="M 0,0 V 116.259 H 23.413 L 94.784,31.326 v 84.933 H 116.26 L 116.26,0 H 92.846 L 21.314,85.095 V 0 Z" /></g><g
       transform="translate(698.2218,262.2572)"
       id="g16"><path
         id="path18"
         style="fill:#f39415;fill-opacity:1;fill-rule:nonzero;stroke:none"
         d="M 0,0 V 116.259 H 107.056 V 94.784 H 21.477 V 68.949 H 90.264 V 47.313 H 21.477 V 21.476 h 85.579 V 0 Z" /></g><g
       id="g20"><g
         clip-path="url(#clipPath26)"
         id="g22"><g
           transform="translate(845.3536,283.7328)"
           id="g28"><path
             id="path30"
             style="fill:#f39415;fill-opacity:1;fill-rule:nonzero;stroke:none"
             d="m 0,0 h 62.166 c 2.908,0 4.575,0.187 5.007,0.565 0.429,0.375 0.645,2.072 0.645,5.086 v 62.006 c 0,3.012 -0.216,4.708 -0.645,5.086 -0.432,0.375 -2.099,0.565 -5.007,0.565 L 0,73.308 c -3.015,0 -4.711,-0.19 -5.086,-0.565 -0.379,-0.378 -0.565,-2.074 -0.565,-5.086 V 5.651 c 0,-3.014 0.186,-4.711 0.565,-5.086 C -4.711,0.187 -3.015,0 0,0 m -4.521,-21.476 c -6.136,0 -11.412,2.205 -15.824,6.621 -4.416,4.413 -6.62,9.688 -6.62,15.824 v 71.37 c 0,6.136 2.204,11.409 6.62,15.825 4.412,4.413 9.688,6.62 15.824,6.62 H 66.85 c 6.135,0 11.408,-2.207 15.824,-6.62 4.412,-4.416 6.62,-9.689 6.62,-15.825 V 0.969 c 0,-6.136 -2.208,-11.411 -6.62,-15.824 -4.416,-4.416 -9.689,-6.621 -15.824,-6.621 z" /></g><g
           transform="translate(971.5753,262.2572)"
           id="g32"><path
             id="path34"
             style="fill:#2b2b2a;fill-opacity:1;fill-rule:nonzero;stroke:none"
             d="m 0,0 c -6.137,0 -11.413,2.205 -15.825,6.62 -4.415,4.414 -6.62,9.689 -6.62,15.825 v 8.881 h 21.314 v -4.2 c 0,-3.014 0.187,-4.71 0.566,-5.085 0.375,-0.378 2.071,-0.565 5.086,-0.565 h 62.166 c 3.013,0 4.708,0.187 5.086,0.565 0.377,0.375 0.566,2.071 0.566,5.085 V 41.82 c 0,3.015 -0.189,4.685 -0.566,5.008 -0.378,0.323 -2.073,0.485 -5.086,0.485 H 0 c -6.137,0 -11.413,2.232 -15.825,6.7 -4.415,4.466 -6.62,9.768 -6.62,15.905 v 23.896 c 0,6.136 2.205,11.41 6.62,15.825 4.412,4.414 9.688,6.62 15.825,6.62 h 71.369 c 6.137,0 11.409,-2.206 15.825,-6.62 4.412,-4.415 6.62,-9.689 6.62,-15.825 V 84.933 H 72.339 v 4.2 c 0,3.012 -0.189,4.708 -0.566,5.085 -0.378,0.376 -2.073,0.566 -5.086,0.566 H 4.521 c -3.015,0 -4.711,-0.19 -5.086,-0.566 -0.379,-0.377 -0.566,-2.073 -0.566,-5.085 V 74.439 c 0,-3.015 0.187,-4.682 0.566,-5.005 0.375,-0.323 2.071,-0.485 5.086,-0.485 h 66.848 c 6.137,0 11.409,-2.235 15.825,-6.7 4.412,-4.471 6.62,-9.77 6.62,-15.906 V 22.445 C 93.814,16.309 91.606,11.034 87.194,6.62 82.778,2.205 77.506,0 71.369,0 Z" /></g><g
           transform="translate(1126.796,262.2572)"
           id="g36"><path
             id="path38"
             style="fill:#2b2b2a;fill-opacity:1;fill-rule:nonzero;stroke:none"
             d="m 0,0 v 43.597 l -53.609,72.662 H -28.42 L 10.818,67.011 49.732,116.259 H 75.245 L 21.476,43.436 V 0 Z" /></g><g
           transform="translate(1207.0958,262.2572)"
           id="g40"><path
             id="path42"
             style="fill:#2b2b2a;fill-opacity:1;fill-rule:nonzero;stroke:none"
             d="M 0,0 V 116.259 H 23.413 L 94.784,31.326 v 84.933 H 116.26 L 116.26,0 H 92.846 L 21.314,85.095 V 0 Z" /></g><g
           transform="translate(572.5421,183.4135)"
           id="g44"><path
             id="path46"
             style="fill:#2b2b2a;fill-opacity:1;fill-rule:nonzero;stroke:none"
             d="m 0,0 c -2.027,2.198 -3.041,5.3 -3.041,9.306 v 27.55 c 0,4.005 1.014,7.108 3.041,9.306 2.026,2.198 4.97,3.298 8.829,3.298 3.859,0 6.802,-1.1 8.83,-3.298 2.027,-2.198 3.04,-5.301 3.04,-9.306 v -5.421 h -7.62 v 5.934 c 0,3.175 -1.344,4.764 -4.03,4.764 -2.687,0 -4.029,-1.589 -4.029,-4.764 V 8.72 c 0,-3.127 1.342,-4.69 4.029,-4.69 2.686,0 4.03,1.563 4.03,4.69 v 7.84 h 7.62 V 9.306 C 20.699,5.3 19.686,2.198 17.659,0 15.631,-2.198 12.688,-3.297 8.829,-3.297 4.97,-3.297 2.026,-2.198 0,0" /></g><g
           transform="translate(608.0646,210.1586)"
           id="g48"><path
             id="path50"
             style="fill:#2b2b2a;fill-opacity:1;fill-rule:nonzero;stroke:none"
             d="m 0,0 c 1.612,0 2.821,0.414 3.627,1.245 0.807,0.83 1.209,2.223 1.209,4.177 v 3.957 c 0,1.855 -0.329,3.199 -0.989,4.03 -0.659,0.83 -1.698,1.245 -3.115,1.245 H -2.931 L -2.931,0 Z M -10.991,21.981 H 0.953 c 4.151,0 7.181,-0.964 9.086,-2.893 1.904,-1.931 2.857,-4.899 2.857,-8.903 V 7.034 c 0,-5.325 -1.758,-8.695 -5.276,-10.112 v -0.147 c 1.954,-0.586 3.334,-1.783 4.141,-3.589 0.805,-1.808 1.209,-4.226 1.209,-7.254 v -9.013 c 0,-1.466 0.048,-2.65 0.146,-3.554 0.098,-0.905 0.341,-1.796 0.733,-2.675 H 5.643 c -0.294,0.831 -0.49,1.613 -0.587,2.345 -0.098,0.733 -0.147,2.052 -0.147,3.957 v 9.379 c 0,2.345 -0.379,3.981 -1.136,4.909 -0.757,0.928 -2.064,1.393 -3.919,1.393 H -2.931 V -29.31 h -8.06 z" /></g><g
           transform="translate(625.7238,232.14)"
           id="g52"><path
             id="path54"
             style="fill:#2b2b2a;fill-opacity:1;fill-rule:nonzero;stroke:none"
             d="M 0,0 H 21.982 V -7.327 H 8.061 V -20.883 H 19.125 V -28.21 H 8.061 v -15.754 h 13.921 v -7.327 H 0 Z" /></g><g
           transform="translate(667.7091,197.848)"
           id="g56"><path
             id="path58"
             style="fill:#2b2b2a;fill-opacity:1;fill-rule:nonzero;stroke:none"
             d="M 0,0 -3.591,25.354 H -3.737 L -7.254,0 Z M -8.793,34.292 H 2.125 l 8.353,-51.291 H 2.418 L 0.952,-6.814 v -0.147 h -9.159 l -1.465,-10.038 h -7.474 z" /></g><g
           transform="translate(685.2784,224.8129)"
           id="g60"><path
             id="path62"
             style="fill:#2b2b2a;fill-opacity:1;fill-rule:nonzero;stroke:none"
             d="M 0,0 H -8.427 V 7.327 H 16.486 V 0 H 8.061 V -43.964 H 0 Z" /></g><path
           id="path64"
           style="fill:#2b2b2a;fill-opacity:1;fill-rule:nonzero;stroke:none"
           d="m 705.208,232.14 h 8.061 v -51.291 h -8.061 z" /><g
           transform="translate(717.8986,232.14)"
           id="g66"><path
             id="path68"
             style="fill:#2b2b2a;fill-opacity:1;fill-rule:nonzero;stroke:none"
             d="m 0,0 h 10.112 l 7.84,-30.701 h 0.147 V 0 h 7.18 V -51.291 H 17 L 7.328,-13.849 H 7.181 V -51.291 H 0 Z" /></g><g
           transform="translate(750.504,183.4506)"
           id="g70"><path
             id="path72"
             style="fill:#2b2b2a;fill-opacity:1;fill-rule:nonzero;stroke:none"
             d="m 0,0 c -2.051,2.222 -3.077,5.409 -3.077,9.562 v 26.964 c 0,4.152 1.026,7.339 3.077,9.563 2.052,2.222 5.031,3.334 8.939,3.334 3.909,0 6.888,-1.112 8.94,-3.334 2.052,-2.224 3.078,-5.411 3.078,-9.563 V 32.13 h -7.621 v 4.909 c 0,3.371 -1.392,5.057 -4.177,5.057 -2.784,0 -4.176,-1.686 -4.176,-5.057 V 8.976 c 0,-3.323 1.392,-4.983 4.176,-4.983 2.785,0 4.177,1.66 4.177,4.983 v 10.038 h -4.03 v 7.328 H 20.957 V 9.562 C 20.957,5.409 19.931,2.222 17.879,0 15.827,-2.224 12.848,-3.334 8.939,-3.334 5.031,-3.334 2.052,-2.224 0,0" /></g><g
           transform="translate(790.4366,183.4506)"
           id="g74"><path
             id="path76"
             style="fill:#2b2b2a;fill-opacity:1;fill-rule:nonzero;stroke:none"
             d="m 0,0 c -2.004,2.222 -3.004,5.409 -3.004,9.562 v 2.931 h 7.62 V 8.976 c 0,-3.323 1.393,-4.983 4.177,-4.983 1.367,0 2.405,0.403 3.114,1.209 0.707,0.806 1.063,2.112 1.063,3.92 0,2.149 -0.49,4.042 -1.466,5.679 -0.978,1.636 -2.784,3.601 -5.422,5.898 -3.323,2.931 -5.643,5.58 -6.961,7.95 -1.319,2.37 -1.978,5.043 -1.978,8.024 0,4.055 1.025,7.192 3.077,9.416 2.051,2.222 5.031,3.334 8.939,3.334 3.859,0 6.778,-1.112 8.756,-3.334 1.979,-2.224 2.968,-5.411 2.968,-9.563 v -2.125 h -7.62 v 2.638 c 0,1.759 -0.343,3.041 -1.027,3.848 -0.684,0.805 -1.684,1.209 -3.004,1.209 -2.687,0 -4.03,-1.638 -4.03,-4.91 0,-1.857 0.501,-3.59 1.502,-5.203 1.001,-1.612 2.821,-3.566 5.459,-5.861 3.371,-2.932 5.691,-5.595 6.961,-7.987 1.271,-2.394 1.905,-5.202 1.905,-8.427 0,-4.201 -1.038,-7.426 -3.114,-9.672 -2.076,-2.247 -5.092,-3.37 -9.049,-3.37 C 4.957,-3.334 2.003,-2.224 0,0" /></g><path
           id="path78"
           style="fill:#2b2b2a;fill-opacity:1;fill-rule:nonzero;stroke:none"
           d="m 815.239,232.14 h 8.061 v -51.291 h -8.061 z" /><g
           transform="translate(827.9288,232.14)"
           id="g80"><path
             id="path82"
             style="fill:#2b2b2a;fill-opacity:1;fill-rule:nonzero;stroke:none"
             d="m 0,0 h 10.112 l 7.84,-30.701 h 0.147 V 0 h 7.18 V -51.291 H 17 L 7.328,-13.849 H 7.181 V -51.291 H 0 Z" /></g><g
           transform="translate(857.8243,232.14)"
           id="g84"><path
             id="path86"
             style="fill:#2b2b2a;fill-opacity:1;fill-rule:nonzero;stroke:none"
             d="M 0,0 H 21.982 V -7.327 H 8.061 V -20.883 H 19.125 V -28.21 H 8.061 v -15.754 h 13.921 v -7.327 H 0 Z" /></g><g
           transform="translate(894.5704,210.1586)"
           id="g88"><path
             id="path90"
             style="fill:#2b2b2a;fill-opacity:1;fill-rule:nonzero;stroke:none"
             d="m 0,0 c 1.612,0 2.821,0.414 3.627,1.245 0.807,0.83 1.209,2.223 1.209,4.177 v 3.957 c 0,1.855 -0.329,3.199 -0.989,4.03 -0.659,0.83 -1.698,1.245 -3.115,1.245 H -2.931 L -2.931,0 Z M -10.991,21.981 H 0.953 c 4.151,0 7.181,-0.964 9.086,-2.893 1.904,-1.931 2.857,-4.899 2.857,-8.903 V 7.034 c 0,-5.325 -1.758,-8.695 -5.276,-10.112 v -0.147 c 1.954,-0.586 3.334,-1.783 4.141,-3.589 0.805,-1.808 1.209,-4.226 1.209,-7.254 v -9.013 c 0,-1.466 0.048,-2.65 0.146,-3.554 0.098,-0.905 0.341,-1.796 0.733,-2.675 H 5.643 c -0.294,0.831 -0.49,1.613 -0.587,2.345 -0.098,0.733 -0.147,2.052 -0.147,3.957 v 9.379 c 0,2.345 -0.379,3.981 -1.136,4.909 -0.757,0.928 -2.064,1.393 -3.919,1.393 H -2.931 V -29.31 h -8.06 z" /></g><g
           transform="translate(914.5587,183.4506)"
           id="g92"><path
             id="path94"
             style="fill:#2b2b2a;fill-opacity:1;fill-rule:nonzero;stroke:none"
             d="m 0,0 c -2.051,2.222 -3.077,5.409 -3.077,9.562 v 26.964 c 0,4.152 1.026,7.339 3.077,9.563 2.052,2.222 5.031,3.334 8.939,3.334 3.909,0 6.888,-1.112 8.94,-3.334 2.052,-2.224 3.078,-5.411 3.078,-9.563 V 32.13 h -7.621 v 4.909 c 0,3.371 -1.392,5.057 -4.177,5.057 -2.784,0 -4.176,-1.686 -4.176,-5.057 V 8.976 c 0,-3.323 1.392,-4.983 4.176,-4.983 2.785,0 4.177,1.66 4.177,4.983 v 10.038 h -4.03 v 7.328 H 20.957 V 9.562 C 20.957,5.409 19.931,2.222 17.879,0 15.827,-2.224 12.848,-3.334 8.939,-3.334 5.031,-3.334 2.052,-2.224 0,0" /></g><g
           transform="translate(946.8722,202.685)"
           id="g96"><path
             id="path98"
             style="fill:#2b2b2a;fill-opacity:1;fill-rule:nonzero;stroke:none"
             d="m 0,0 -9.746,29.455 h 8.573 L 4.322,10.624 H 4.47 l 5.495,18.831 h 7.84 L 8.06,0 V -21.836 H 0 Z" /></g><g
           transform="translate(980.5031,232.14)"
           id="g100"><path
             id="path102"
             style="fill:#2b2b2a;fill-opacity:1;fill-rule:nonzero;stroke:none"
             d="M 0,0 H 21.323 V -7.327 H 8.061 v -14.288 h 10.404 v -7.327 H 8.061 V -51.291 H 0 Z" /></g><g
           transform="translate(1021.3019,192.4994)"
           id="g104"><path
             id="path106"
             style="fill:#2b2b2a;fill-opacity:1;fill-rule:nonzero;stroke:none"
             d="m 0,0 v 27.99 c 0,3.371 -1.392,5.057 -4.177,5.057 -2.784,0 -4.176,-1.686 -4.176,-5.057 V 0 c 0,-3.37 1.392,-5.056 4.176,-5.056 C -1.392,-5.056 0,-3.37 0,0 m -13.263,-9.013 c -2.1,2.246 -3.15,5.423 -3.15,9.526 v 26.965 c 0,4.103 1.05,7.278 3.15,9.525 2.101,2.246 5.13,3.371 9.086,3.371 3.957,0 6.986,-1.125 9.086,-3.371 2.101,-2.247 3.152,-5.422 3.152,-9.525 V 0.513 c 0,-4.103 -1.051,-7.28 -3.152,-9.526 -2.1,-2.247 -5.129,-3.37 -9.086,-3.37 -3.956,0 -6.985,1.123 -9.086,3.37" /></g><g
           transform="translate(1044.6027,210.1586)"
           id="g108"><path
             id="path110"
             style="fill:#2b2b2a;fill-opacity:1;fill-rule:nonzero;stroke:none"
             d="m 0,0 c 1.612,0 2.821,0.414 3.627,1.245 0.807,0.83 1.209,2.223 1.209,4.177 v 3.957 c 0,1.855 -0.329,3.199 -0.989,4.03 -0.659,0.83 -1.698,1.245 -3.115,1.245 H -2.931 L -2.931,0 Z M -10.991,21.981 H 0.953 c 4.151,0 7.181,-0.964 9.086,-2.893 1.904,-1.931 2.857,-4.899 2.857,-8.903 V 7.034 c 0,-5.325 -1.758,-8.695 -5.276,-10.112 v -0.147 c 1.954,-0.586 3.334,-1.783 4.141,-3.589 0.805,-1.808 1.209,-4.226 1.209,-7.254 v -9.013 c 0,-1.466 0.048,-2.65 0.146,-3.554 0.098,-0.905 0.341,-1.796 0.733,-2.675 H 5.643 c -0.294,0.831 -0.49,1.613 -0.587,2.345 -0.098,0.733 -0.147,2.052 -0.147,3.957 v 9.379 c 0,2.345 -0.379,3.981 -1.136,4.909 -0.757,0.928 -2.064,1.393 -3.919,1.393 H -2.931 V -29.31 h -8.06 z" /></g><path
           id="path112"
           style="fill:#2b2b2a;fill-opacity:1;fill-rule:nonzero;stroke:none"
           d="m 1075.303,232.14 h 8.061 v -51.291 h -8.061 z" /><g
           transform="translate(1087.9923,232.14)"
           id="g114"><path
             id="path116"
             style="fill:#2b2b2a;fill-opacity:1;fill-rule:nonzero;stroke:none"
             d="m 0,0 h 10.112 l 7.84,-30.701 h 0.147 V 0 h 7.18 V -51.291 H 17 L 7.328,-13.849 H 7.181 V -51.291 H 0 Z" /></g><g
           transform="translate(1117.8878,232.14)"
           id="g118"><path
             id="path120"
             style="fill:#2b2b2a;fill-opacity:1;fill-rule:nonzero;stroke:none"
             d="m 0,0 h 10.112 l 7.84,-30.701 h 0.147 V 0 h 7.18 V -51.291 H 17 L 7.328,-13.849 H 7.181 V -51.291 H 0 Z" /></g><g
           transform="translate(1163.8292,192.4994)"
           id="g122"><path
             id="path124"
             style="fill:#2b2b2a;fill-opacity:1;fill-rule:nonzero;stroke:none"
             d="m 0,0 v 27.99 c 0,3.371 -1.392,5.057 -4.177,5.057 -2.784,0 -4.176,-1.686 -4.176,-5.057 V 0 c 0,-3.37 1.392,-5.056 4.176,-5.056 C -1.392,-5.056 0,-3.37 0,0 m -13.263,-9.013 c -2.1,2.246 -3.15,5.423 -3.15,9.526 v 26.965 c 0,4.103 1.05,7.278 3.15,9.525 2.101,2.246 5.13,3.371 9.086,3.371 3.957,0 6.986,-1.125 9.086,-3.371 2.101,-2.247 3.152,-5.422 3.152,-9.525 V 0.513 c 0,-4.103 -1.051,-7.28 -3.152,-9.526 -2.1,-2.247 -5.129,-3.37 -9.086,-3.37 -3.956,0 -6.985,1.123 -9.086,3.37" /></g><g
           transform="translate(1174.3068,232.14)"
           id="g126"><path
             id="path128"
             style="fill:#2b2b2a;fill-opacity:1;fill-rule:nonzero;stroke:none"
             d="m 0,0 h 8.134 l 5.275,-39.787 h 0.147 L 18.832,0 h 7.4 L 18.465,-51.291 H 7.768 Z" /></g><g
           transform="translate(1216.255,197.848)"
           id="g130"><path
             id="path132"
             style="fill:#2b2b2a;fill-opacity:1;fill-rule:nonzero;stroke:none"
             d="M 0,0 -3.591,25.354 H -3.737 L -7.254,0 Z M -8.793,34.292 H 2.125 l 8.353,-51.291 H 2.418 L 0.952,-6.814 v -0.147 h -9.159 l -1.465,-10.038 h -7.474 z" /></g><g
           transform="translate(1233.8253,224.8129)"
           id="g134"><path
             id="path136"
             style="fill:#2b2b2a;fill-opacity:1;fill-rule:nonzero;stroke:none"
             d="M 0,0 H -8.427 V 7.327 H 16.486 V 0 H 8.061 V -43.964 H 0 Z" /></g><path
           id="path138"
           style="fill:#2b2b2a;fill-opacity:1;fill-rule:nonzero;stroke:none"
           d="m 1253.755,232.14 h 8.061 v -51.291 h -8.061 z" /><g
           transform="translate(1282.5431,192.4994)"
           id="g140"><path
             id="path142"
             style="fill:#2b2b2a;fill-opacity:1;fill-rule:nonzero;stroke:none"
             d="m 0,0 v 27.99 c 0,3.371 -1.392,5.057 -4.177,5.057 -2.784,0 -4.176,-1.686 -4.176,-5.057 V 0 c 0,-3.37 1.392,-5.056 4.176,-5.056 C -1.392,-5.056 0,-3.37 0,0 m -13.263,-9.013 c -2.1,2.246 -3.15,5.423 -3.15,9.526 v 26.965 c 0,4.103 1.05,7.278 3.15,9.525 2.101,2.246 5.13,3.371 9.086,3.371 3.957,0 6.986,-1.125 9.086,-3.371 2.101,-2.247 3.152,-5.422 3.152,-9.525 V 0.513 c 0,-4.103 -1.051,-7.28 -3.152,-9.526 -2.1,-2.247 -5.129,-3.37 -9.086,-3.37 -3.956,0 -6.985,1.123 -9.086,3.37" /></g><g
           transform="translate(1294.8527,232.14)"
           id="g144"><path
             id="path146"
             style="fill:#2b2b2a;fill-opacity:1;fill-rule:nonzero;stroke:none"
             d="m 0,0 h 10.112 l 7.84,-30.701 h 0.147 V 0 h 7.18 V -51.291 H 17 L 7.328,-13.849 H 7.181 V -51.291 H 0 Z" /></g><g
           transform="translate(497.6105,134.3344)"
           id="g148"><path
             id="path150"
             style="fill:#f28f17;fill-opacity:1;fill-rule:nonzero;stroke:none"
             d="M 0,0 -0.141,-0.25 C -0.181,-0.33 -0.23,-0.4 -0.29,-0.48 -0.36,-0.6 -0.44,-0.72 -0.53,-0.84 -0.94,-1.38 -1.46,-1.82 -2.04,-2.15 -2.2,-2.24 -2.37,-2.32 -2.54,-2.39 -2.841,-2.52 -3.15,-2.62 -3.48,-2.68 -3.67,-2.72 -3.87,-2.75 -4.07,-2.77 -4.2,-2.78 -4.33,-2.79 -4.46,-2.79 h -0.03 c -1.781,0 -3.43,0.95 -4.321,2.49 l -4.359,7.51 -128.801,222.11 -4.38,7.56 c -0.12,0.2 -0.21,0.4 -0.299,0.6 -0.08,0.21 -0.151,0.42 -0.21,0.63 -0.22,0.82 -0.22,1.68 -0.01,2.48 0.01,0.05 0.019,0.1 0.04,0.16 0.019,0.07 0.04,0.14 0.069,0.22 0.091,0.3 0.221,0.59 0.381,0.87 0.01,0.02 0.02,0.03 0.029,0.05 0.01,0.01 0.01,0.02 0.021,0.03 0.09,0.16 0.2,0.32 0.309,0.47 l 0.01,0.01 c 0.131,0.17 0.271,0.34 0.42,0.49 0.051,0.06 0.111,0.11 0.171,0.17 0.029,0.03 0.069,0.06 0.109,0.09 0.081,0.08 0.17,0.15 0.26,0.21 0.16,0.13 0.341,0.25 0.521,0.35 0.099,0.06 0.2,0.11 0.3,0.16 0.16,0.08 0.32,0.15 0.49,0.21 0.16,0.06 0.33,0.11 0.5,0.15 0.189,0.06 0.38,0.09 0.57,0.12 0.21,0.03 0.43,0.04 0.64,0.04 0.179,0 0.37,-0.01 0.54,-0.03 0.07,0 0.139,-0.02 0.21,-0.03 0.07,-0.01 0.13,-0.02 0.2,-0.03 0.16,-0.03 0.319,-0.07 0.479,-0.12 0.161,-0.05 0.311,-0.1 0.46,-0.16 0.191,-0.08 0.38,-0.17 0.571,-0.28 h 0.009 c 0.121,-0.08 0.241,-0.15 0.361,-0.23 0.12,-0.08 0.229,-0.17 0.34,-0.26 0.11,-0.09 0.219,-0.18 0.32,-0.28 0.08,-0.08 0.16,-0.17 0.25,-0.26 0.01,-0.01 0.019,-0.03 0.029,-0.04 0.08,-0.08 0.151,-0.17 0.21,-0.26 0.131,-0.16 0.25,-0.34 0.351,-0.52 l 0.09,-0.15 c 0.009,-0.01 0.009,-0.02 0.009,-0.03 L -4.54,12.27 -0.16,4.72 C 0.67,3.27 0.739,1.5 0,0" /></g><g
           transform="translate(493.1202,131.5448)"
           id="g152"><path
             id="path154"
             style="fill:#f39415;fill-opacity:1;fill-rule:nonzero;stroke:none"
             d="m 0,0 h -307.271 c -0.179,0 -0.359,0.01 -0.54,0.03 -0.069,0.01 -0.149,0.02 -0.21,0.03 -0.019,0 -0.04,0.01 -0.059,0.01 -0.11,0.02 -0.231,0.04 -0.34,0.07 -0.02,0 -0.04,0 -0.06,0.01 -0.03,0.01 -0.06,0.01 -0.081,0.03 -0.069,0.01 -0.129,0.03 -0.199,0.05 -0.1,0.03 -0.2,0.06 -0.29,0.1 -0.02,0.01 -0.051,0.02 -0.07,0.03 -0.1,0.03 -0.191,0.07 -0.28,0.12 -0.1,0.04 -0.19,0.09 -0.28,0.14 -0.16,0.09 -0.32,0.18 -0.47,0.3 -0.14,0.09 -0.27,0.19 -0.4,0.32 -0.07,0.05 -0.14,0.12 -0.21,0.19 -0.04,0.03 -0.07,0.06 -0.1,0.1 -0.08,0.08 -0.161,0.16 -0.23,0.24 -0.02,0.03 -0.04,0.05 -0.06,0.08 -0.07,0.08 -0.14,0.17 -0.201,0.26 -0.039,0.06 -0.079,0.12 -0.119,0.19 -0.01,0.01 -0.02,0.02 -0.02,0.03 -0.02,0.02 -0.04,0.04 -0.05,0.06 l -16.58,27.05 c -0.01,0.01 -0.02,0.03 -0.04,0.05 -0.02,0.04 -0.05,0.09 -0.08,0.14 v 0.01 c -0.031,0.04 -0.06,0.09 -0.09,0.13 -0.01,0.03 -0.03,0.06 -0.05,0.09 -0.07,0.13 -0.13,0.26 -0.19,0.4 -0.01,0.03 -0.02,0.06 -0.04,0.09 -0.04,0.1 -0.08,0.2 -0.11,0.3 -0.03,0.09 -0.06,0.17 -0.08,0.26 -0.04,0.15 -0.08,0.3 -0.1,0.45 -0.02,0.12 -0.04,0.24 -0.05,0.37 0,0.01 -0.01,0.01 0,0.02 -0.02,0.16 -0.03,0.32 -0.03,0.49 0,0.17 0.01,0.34 0.03,0.51 v 0.03 c 0.01,0.07 0.02,0.14 0.03,0.21 0.02,0.14 0.04,0.28 0.08,0.41 0,0.03 0.01,0.05 0.02,0.08 0,0.03 0.009,0.05 0.02,0.06 0,0.02 0.01,0.04 0.02,0.06 0.009,0.05 0.02,0.1 0.04,0.15 0.01,0.02 0.01,0.05 0.02,0.07 0.01,0.03 0.02,0.07 0.04,0.11 0.02,0.06 0.05,0.12 0.07,0.19 l 0.009,0.01 c 0.04,0.1 0.08,0.2 0.131,0.3 0.01,0.04 0.03,0.07 0.05,0.1 0.02,0.04 0.04,0.08 0.06,0.12 0.07,0.13 0.15,0.26 0.23,0.38 0.01,0.02 0.029,0.04 0.04,0.05 0.05,0.08 0.1,0.15 0.16,0.22 0.06,0.09 0.13,0.18 0.22,0.26 0.1,0.12 0.21,0.23 0.32,0.32 0.15,0.16 0.32,0.3 0.5,0.41 0.06,0.06 0.13,0.1 0.19,0.14 0.099,0.07 0.21,0.13 0.32,0.2 0.29,0.15 0.59,0.29 0.91,0.38 0.159,0.05 0.32,0.09 0.48,0.13 0.17,0.03 0.34,0.06 0.51,0.07 0.16,0.02 0.33,0.03 0.5,0.03 h 266.61 l -11.74,20.15 -5.83,10 -78.99,135.56 5.69,10.09 85.81,-147.26 1.11,-1.9 16.969,-29.12 c 0.051,-0.09 0.08,-0.18 0.121,-0.27 0.08,-0.16 0.16,-0.32 0.23,-0.49 0.05,-0.15 0.1,-0.31 0.14,-0.46 0.04,-0.16 0.08,-0.31 0.11,-0.47 0.03,-0.18 0.04,-0.36 0.05,-0.54 0.01,-0.1 0.03,-0.19 0.03,-0.29 0,-0.05 -0.01,-0.1 -0.01,-0.15 -0.01,-0.18 -0.03,-0.36 -0.06,-0.54 -0.02,-0.15 -0.04,-0.31 -0.071,-0.45 -0.04,-0.16 -0.089,-0.31 -0.139,-0.46 -0.06,-0.16 -0.111,-0.31 -0.17,-0.46 -0.07,-0.15 -0.151,-0.28 -0.231,-0.42 -0.079,-0.14 -0.159,-0.28 -0.25,-0.41 -0.089,-0.13 -0.199,-0.25 -0.309,-0.37 -0.1,-0.13 -0.21,-0.25 -0.33,-0.36 -0.111,-0.1 -0.23,-0.2 -0.35,-0.29 -0.14,-0.11 -0.28,-0.22 -0.431,-0.32 -0.049,-0.03 -0.08,-0.06 -0.129,-0.09 -0.161,-0.09 -0.33,-0.17 -0.5,-0.25 -0.03,-0.01 -0.06,-0.03 -0.09,-0.04 -0.27,-0.12 -0.55,-0.2 -0.83,-0.26 -0.07,-0.01 -0.13,-0.03 -0.201,-0.04 -0.299,-0.05 -0.589,-0.09 -0.889,-0.09 h -0.02 -266.37 L -304.48,10 H -8.68 L -4.32,2.49 C -3.43,0.95 -1.78,0 0,0" /></g><g
           transform="translate(344.88,344.5844)"
           id="g156"><path
             id="path158"
             style="fill:#f28f17;fill-opacity:1;fill-rule:nonzero;stroke:none"
             d="m 0,0 -5.689,-10.09 -4.391,7.53 c -0.92,1.57 -0.88,3.44 -0.06,4.92 l 0.06,0.12 c 0.42,0.72 1.03,1.35 1.8,1.8 2.39,1.39 5.45,0.58 6.841,-1.81 z" /></g><g
           transform="translate(493.0704,146.6044)"
           id="g160"><path
             id="path162"
             style="fill:#333e82;fill-opacity:1;fill-rule:nonzero;stroke:none"
             d="m 0,0 -133.061,229.44 c 0,0.01 0,0.02 -0.009,0.03 l -0.09,0.15 c -0.101,0.18 -0.22,0.36 -0.351,0.52 -0.059,0.09 -0.13,0.18 -0.21,0.26 -0.009,0.01 -0.019,0.03 -0.029,0.04 -0.09,0.09 -0.17,0.18 -0.25,0.26 -0.101,0.1 -0.21,0.19 -0.32,0.28 -0.111,0.09 -0.22,0.18 -0.34,0.26 -0.12,0.08 -0.24,0.15 -0.361,0.23 h -0.009 c -0.191,0.11 -0.38,0.2 -0.571,0.28 -0.149,0.06 -0.299,0.11 -0.46,0.16 -0.16,0.05 -0.319,0.09 -0.479,0.12 -0.07,0.01 -0.13,0.02 -0.2,0.03 -0.071,0.01 -0.14,0.03 -0.21,0.03 -0.17,0.02 -0.361,0.03 -0.54,0.03 -0.21,0 -0.43,-0.01 -0.64,-0.04 -0.19,-0.03 -0.381,-0.06 -0.57,-0.12 -0.17,-0.04 -0.34,-0.09 -0.5,-0.15 -0.17,-0.06 -0.33,-0.13 -0.49,-0.21 -0.1,-0.05 -0.201,-0.1 -0.3,-0.16 -0.18,-0.1 -0.361,-0.22 -0.521,-0.35 -0.09,-0.06 -0.179,-0.13 -0.26,-0.21 -0.04,-0.03 -0.08,-0.06 -0.109,-0.09 -0.06,-0.06 -0.12,-0.11 -0.171,-0.17 -0.149,-0.15 -0.289,-0.32 -0.42,-0.49 l -0.009,-0.01 c -0.11,-0.15 -0.22,-0.31 -0.31,-0.47 -0.011,-0.01 -0.011,-0.02 -0.021,-0.03 -0.009,-0.02 -0.019,-0.03 -0.029,-0.05 l -16.431,-29.11 -0.059,-0.12 -83.53,-148.01 h -23.651 L -137.5,273.76 9.699,17.16 Z m 19.79,19.67 -152.78,266.31 c -0.05,0.1 -0.1,0.19 -0.16,0.29 -0.22,0.38 -0.491,0.72 -0.8,1.03 -0.151,0.16 -0.321,0.3 -0.49,0.44 -0.17,0.13 -0.35,0.25 -0.54,0.36 0,0.01 -0.01,0.01 -0.01,0.01 -0.18,0.1 -0.38,0.19 -0.571,0.28 l -0.009,0.01 c -0.201,0.07 -0.401,0.14 -0.611,0.2 -0.179,0.05 -0.37,0.09 -0.559,0.12 -0.14,0.02 -0.271,0.04 -0.41,0.05 -0.111,0.01 -0.22,0.01 -0.33,0.01 -0.89,0 -1.75,-0.24 -2.5,-0.67 -0.75,-0.44 -1.39,-1.06 -1.831,-1.83 l -4.339,-7.5 -132.17,-228.65 -0.18,-0.3 c -0.061,-0.1 -0.11,-0.2 -0.16,-0.3 -0.01,-0.01 -0.01,-0.03 -0.021,-0.04 -0.09,-0.19 -0.159,-0.38 -0.229,-0.57 -0.03,-0.1 -0.061,-0.21 -0.09,-0.31 -0.03,-0.11 -0.061,-0.21 -0.08,-0.32 -0.03,-0.15 -0.05,-0.3 -0.061,-0.45 -0.019,-0.15 -0.029,-0.32 -0.029,-0.48 V 47.34 47.32 47.3 c 0,-0.16 0.01,-0.33 0.029,-0.48 0.011,-0.06 0.011,-0.12 0.021,-0.18 0.01,-0.06 0.01,-0.12 0.03,-0.18 0,-0.03 0,-0.07 0.01,-0.1 0.029,-0.11 0.05,-0.22 0.08,-0.32 0.02,-0.1 0.05,-0.2 0.09,-0.3 0.03,-0.09 0.07,-0.19 0.109,-0.29 0,-0.01 0.011,-0.02 0.011,-0.03 0.019,-0.07 0.06,-0.14 0.09,-0.21 0,-0.01 0.01,-0.01 0.01,-0.02 0.009,-0.02 0.02,-0.04 0.03,-0.07 0.01,-0.02 0.019,-0.03 0.03,-0.05 0.04,-0.08 0.079,-0.16 0.13,-0.24 0.01,-0.02 0.029,-0.05 0.04,-0.07 0.08,-0.13 0.159,-0.25 0.25,-0.37 0.02,-0.04 0.05,-0.07 0.08,-0.11 0.02,-0.03 0.04,-0.06 0.069,-0.08 l 0.01,-0.01 c 0.011,-0.02 0.021,-0.04 0.04,-0.06 0.071,-0.09 0.141,-0.17 0.221,-0.25 0.019,-0.02 0.029,-0.03 0.04,-0.05 h 0.01 c 0,-0.01 0.019,-0.03 0.03,-0.04 0.02,-0.01 0.04,-0.03 0.05,-0.04 0.05,-0.05 0.109,-0.11 0.17,-0.15 0.08,-0.08 0.16,-0.15 0.25,-0.22 l 0.03,-0.02 c 0.01,-0.01 0.02,-0.01 0.029,-0.02 0.141,-0.11 0.29,-0.21 0.441,-0.3 0.019,-0.01 0.03,-0.02 0.05,-0.03 0.16,-0.1 0.33,-0.18 0.5,-0.25 0.11,-0.06 0.23,-0.1 0.35,-0.14 0.02,-0.01 0.029,-0.01 0.05,-0.02 0.08,-0.03 0.16,-0.05 0.239,-0.08 0.04,-0.01 0.08,-0.02 0.111,-0.03 0.07,-0.01 0.139,-0.03 0.21,-0.05 0.049,-0.01 0.089,-0.01 0.129,-0.02 0.04,-0.01 0.071,-0.02 0.111,-0.02 0.11,-0.02 0.21,-0.04 0.309,-0.04 0.17,-0.02 0.341,-0.03 0.511,-0.03 h 35.22 0.019 c 0.17,0 0.341,0.01 0.5,0.03 0.111,0.01 0.221,0.02 0.33,0.05 0.04,0 0.08,0.01 0.13,0.02 0.101,0.02 0.21,0.04 0.311,0.07 0.109,0.03 0.21,0.06 0.309,0.09 0.21,0.07 0.411,0.15 0.601,0.25 0.1,0.04 0.189,0.09 0.279,0.14 0.011,0.01 0.021,0.01 0.031,0.02 0.07,0.05 0.15,0.09 0.219,0.14 0.071,0.05 0.141,0.09 0.21,0.15 0.151,0.09 0.29,0.21 0.421,0.33 0.06,0.06 0.119,0.11 0.18,0.17 0.059,0.06 0.109,0.11 0.149,0.17 0.091,0.08 0.16,0.17 0.231,0.26 0.05,0.05 0.09,0.11 0.12,0.17 0.12,0.15 0.22,0.31 0.32,0.48 l 0.09,0.16 0.02,0.03 4.1,7.27 76.5,135.56 5.69,10.09 10.759,19.07 128.801,-222.11 4.359,-7.51 c 0.891,-1.54 2.541,-2.49 4.321,-2.49 h 0.03 c 0.13,0 0.26,0.01 0.39,0.02 0.2,0.02 0.4,0.05 0.59,0.09 0.33,0.06 0.639,0.16 0.94,0.29 0.17,0.07 0.34,0.15 0.5,0.24 0.58,0.33 1.1,0.77 1.51,1.31 0.09,0.12 0.17,0.24 0.24,0.36 0.06,0.08 0.109,0.15 0.149,0.23 l 0.141,0.25 15.27,26.99 c 0.87,1.54 0.86,3.42 -0.02,4.95" /></g><g
           transform="translate(424.0099,188.9345)"
           id="g164"><path
             id="path166"
             style="fill:#2b2b2a;fill-opacity:1;fill-rule:nonzero;stroke:none"
             d="m 0,0 h -205.109 c -0.17,0 -0.341,0.01 -0.511,0.03 -0.1,0 -0.199,0.02 -0.31,0.04 -0.04,0 -0.07,0.01 -0.11,0.02 -0.04,0.01 -0.08,0.01 -0.13,0.02 -0.07,0.02 -0.14,0.04 -0.21,0.05 -0.03,0.01 -0.07,0.02 -0.11,0.03 -0.079,0.03 -0.159,0.05 -0.239,0.08 -0.021,0.01 -0.031,0.01 -0.05,0.02 -0.12,0.04 -0.241,0.08 -0.351,0.14 -0.17,0.07 -0.34,0.15 -0.5,0.25 -0.019,0.01 -0.03,0.02 -0.05,0.03 -0.15,0.09 -0.299,0.19 -0.44,0.3 -0.01,0.01 -0.02,0.01 -0.029,0.02 l -0.031,0.02 c -0.09,0.07 -0.17,0.14 -0.25,0.22 -0.06,0.04 -0.12,0.1 -0.17,0.15 -0.009,0.01 -0.03,0.03 -0.049,0.04 -0.011,0.01 -0.031,0.03 -0.031,0.04 h -0.009 c -0.011,0.02 -0.021,0.03 -0.04,0.05 -0.05,0.06 -0.111,0.12 -0.17,0.19 -0.011,0.02 -0.031,0.04 -0.051,0.06 -0.02,0.02 -0.029,0.04 -0.04,0.06 L -209,1.87 c -0.029,0.02 -0.05,0.05 -0.069,0.08 -0.031,0.04 -0.061,0.07 -0.08,0.11 -0.091,0.12 -0.17,0.24 -0.25,0.37 -0.011,0.02 -0.031,0.05 -0.04,0.07 -0.051,0.08 -0.09,0.16 -0.13,0.24 -0.011,0.02 -0.021,0.03 -0.031,0.05 -0.009,0.01 -0.009,0.03 -0.009,0.04 -0.011,0.01 -0.021,0.02 -0.021,0.03 0,0.01 -0.01,0.01 -0.01,0.02 -0.03,0.07 -0.07,0.14 -0.089,0.21 0,0.01 -0.011,0.02 -0.011,0.03 -0.039,0.1 -0.079,0.2 -0.11,0.29 -0.04,0.1 -0.07,0.2 -0.089,0.3 -0.031,0.1 -0.051,0.21 -0.081,0.32 -0.009,0.03 -0.009,0.07 -0.009,0.1 -0.021,0.06 -0.021,0.12 -0.031,0.18 -0.009,0.06 -0.009,0.12 -0.02,0.18 -0.02,0.15 -0.029,0.32 -0.029,0.48 v 0.02 0.02 0.02 c 0,0.16 0.009,0.33 0.029,0.48 0.011,0.15 0.03,0.3 0.06,0.45 0.02,0.11 0.05,0.21 0.081,0.32 0.029,0.1 0.059,0.21 0.089,0.31 0.071,0.19 0.14,0.38 0.23,0.57 0.011,0.01 0.011,0.03 0.02,0.04 0.05,0.1 0.1,0.2 0.161,0.3 l 0.179,0.3 132.17,228.65 h -21.439 l -147.7,-256.6 h -8.641 c -0.17,0 -0.34,-0.01 -0.5,-0.03 -0.17,-0.01 -0.34,-0.04 -0.51,-0.07 -0.16,-0.04 -0.32,-0.08 -0.479,-0.13 -0.321,-0.09 -0.62,-0.23 -0.911,-0.38 -0.11,-0.07 -0.22,-0.13 -0.32,-0.2 -0.059,-0.04 -0.13,-0.08 -0.189,-0.14 -0.181,-0.11 -0.351,-0.25 -0.5,-0.41 -0.111,-0.09 -0.221,-0.2 -0.321,-0.32 -0.089,-0.08 -0.16,-0.17 -0.219,-0.26 -0.061,-0.07 -0.111,-0.14 -0.16,-0.22 -0.011,-0.01 -0.031,-0.03 -0.041,-0.05 l 153.26,266.3 c 0.89,1.55 2.55,2.51 4.33,2.51 h 33.01 c 0.11,0 0.22,0 0.33,-0.01 0.14,-0.01 0.271,-0.03 0.41,-0.05 0.19,-0.03 0.38,-0.07 0.56,-0.12 0.21,-0.06 0.41,-0.13 0.61,-0.2 l 0.01,-0.01 c 0.2,-0.08 0.391,-0.17 0.57,-0.28 0,0 0.01,0 0.01,-0.01 0.191,-0.11 0.37,-0.23 0.54,-0.36 0.17,-0.14 0.34,-0.28 0.49,-0.44 0.31,-0.31 0.58,-0.65 0.8,-1.03 0.061,-0.1 0.111,-0.19 0.16,-0.29 0.73,-1.49 0.67,-3.26 -0.17,-4.71 l -4.339,-7.51 -128,-221.43 H -5.83 Z" /></g><g
           transform="translate(1365.9259,73.5575)"
           id="g168"><path
             id="path170"
             style="fill:none;stroke:#343b7c;stroke-width:20;stroke-linecap:round;stroke-linejoin:round;stroke-miterlimit:10;stroke-dasharray:none;stroke-opacity:1"
             d="m 0,0 h -1227.138 c -31.31,0 -56.692,25.382 -56.692,56.693 v 306.428 c 0,31.311 25.382,56.693 56.692,56.693 L 0,419.814 c 31.311,0 56.692,-25.382 56.692,-56.693 V 56.693 C 56.692,25.382 31.311,0 0,0 Z" /></g></g></g></g></svg>