<svg xmlns="http://www.w3.org/2000/svg" viewBox="0 0 452.74 185.97"><defs><style>.cls-1{fill:#fff;}.cls-2{fill:none;stroke:#fff;stroke-miterlimit:10;stroke-width:2px;}</style></defs><g id="Livello_2" data-name="Livello 2"><g id="logo2"><g id="dolcemnete"><path class="cls-1" d="M11.77,118.87v43.7H0l1.22-.87v-42L0,118.87Zm5.83,0c2,.75,6.82,3.09,7.17,12.88,0,0,.29,5.07.29,9.32s-.29,9.09-.29,9.09c-.41,9.79-5.19,11.77-7.11,12.41,8-.46,19.87-6.64,19.87-21.5C37.53,126.56,25.52,119.57,17.6,118.87Z"/><path class="cls-1" d="M68.12,121.78c-6.65,3.67-10.55,10.61-10.55,20.4s3.9,16.72,10.55,20.39c-10.55,0-19.87-6.41-19.87-20.39S57.57,121.78,68.12,121.78ZM74,162.57c6.64-3.67,10.54-10.6,10.54-20.39s-3.9-16.73-10.54-20.4c10.54,0,19.87,6.41,19.87,20.4S84.49,162.57,74,162.57Z"/><path class="cls-1" d="M100.75,162.57c3.2-3.32,3.79-5.48,3.79-11.65V133.44c0-6.18-.59-8.34-3.79-11.66H115.9c-3.21,3.32-3.79,5.48-3.79,11.66v17.48c0,6.17.58,8.33,3.79,11.65Zm32.63,0H121.73c6.41-1.75,9.9-5.24,11.65-11.65Z"/><path class="cls-1" d="M161.53,121.78c-6.65,3.67-10.55,10.61-10.55,20.4s3.9,16.72,10.55,20.39c-10.55,0-19.88-6.41-19.88-20.39S151,121.78,161.53,121.78Zm14.56,0v8.74c-1.74-5.24-3.49-7-8.74-8.74Zm0,40.79h-8.74c5.25-1.75,7-3.49,8.74-8.74Z"/><path class="cls-1" d="M186.12,162.57c3.2-3.32,3.78-5.48,3.78-11.65V133.44c0-6.18-.58-8.34-3.78-11.66h15.15c-3.21,3.32-3.79,5.48-3.79,11.66v17.48c0,6.17.58,8.33,3.79,11.65Zm23.3-25.17v8.74a14.07,14.07,0,0,0-8.74-4.37C203.25,141.59,207.44,139.9,209.42,137.4Zm6.41-15.62v8.74c-1.74-5.24-3.49-7-8.74-8.74Zm0,40.79h-8.74c5.25-1.75,7-3.49,8.74-8.74Z"/><path class="cls-1" d="M235.88,162.57H225.16s3.26-1.57,5.36-13.4C231.8,160.94,235.88,162.57,235.88,162.57ZM250,147.36l-11.54-28.49H225.27l1.58.87,17.71,42.83h4l5-20.39Zm19.93,14.34v-42l1.11-.81h-8.63l-3,7V161.7l-1.22.87h12.94Z"/><path class="cls-1" d="M281.39,162.57c3.2-3.32,3.78-5.48,3.78-11.65V133.44c0-6.18-.58-8.34-3.78-11.66h15.15c-3.21,3.32-3.79,5.48-3.79,11.66v17.48c0,6.17.58,8.33,3.79,11.65ZM304.7,137.4v8.74a14.1,14.1,0,0,0-8.75-4.37C298.52,141.59,302.71,139.9,304.7,137.4Zm6.41-15.62v8.74c-1.75-5.24-3.5-7-8.75-8.74Zm0,40.79h-8.75c5.25-1.75,7-3.49,8.75-8.74Z"/><path class="cls-1" d="M335.35,162.57H317.86c5.25-1.75,7-3.49,8.74-8.74C328.35,159.08,330.1,160.82,335.35,162.57Zm17.42-17.48c5.94,5.65,5.94,10.9,5.94,17.48l-26-23.31c-5.94-5.65-5.94-10.89-5.94-17.48Zm14.68-23.31c-5.24,1.75-7,3.5-8.74,8.74-1.75-5.24-3.49-7-8.74-8.74Z"/><path class="cls-1" d="M374.91,121.78h8.74c-4.49,2.16-7.17,6-8.74,11.66Zm12.24,40.79c3.2-3.32,3.79-5.48,3.79-11.65V133.44c0-6.18-.59-8.34-3.79-11.66H402.3c-3.21,3.32-3.79,5.48-3.79,11.66v17.48c0,6.17.58,8.33,3.79,11.65Zm27.39-40.79v11.66c-1.58-5.66-4.26-9.5-8.74-11.66Z"/><path class="cls-1" d="M422.69,162.57c3.21-3.32,3.79-5.48,3.79-11.65V133.44c0-6.18-.58-8.34-3.79-11.66h15.15c-3.2,3.32-3.79,5.48-3.79,11.66v17.48c0,6.17.59,8.33,3.79,11.65ZM446,137.4v8.74a14.1,14.1,0,0,0-8.74-4.37C439.82,141.59,444,139.9,446,137.4Zm6.41-15.62v8.74c-1.75-5.24-3.49-7-8.74-8.74Zm0,40.79h-8.74c5.25-1.75,7-3.49,8.74-8.74Z"/></g><g id="logotipo"><path class="cls-1" d="M252.19,84.12h-7.46s2.27-1.1,3.73-9.33C249.36,83,252.19,84.12,252.19,84.12ZM262,73.53l-8-19.82h-9.16l1.09.61,12.32,29.8H261l3.45-14.19Zm13.87,10V54.28l.77-.57h-6l-2.11,4.9v24.9l-.85.61h9Z"/><path class="cls-1" d="M228.67,53.61a14.8,14.8,0,0,0-3.07.31V83.75a14.8,14.8,0,0,0,3.07.31,15.23,15.23,0,0,0,0-30.45Z"/><rect class="cls-2" x="194.86" y="1" width="93.19" height="93.19"/></g><g id="payoff"><path class="cls-1" d="M3.08,185.82H1v-13.6H4.17a3.21,3.21,0,0,1,2.26.81,3.3,3.3,0,0,1,1,2.53V177a3.29,3.29,0,0,1-1,2.54,3.2,3.2,0,0,1-2.26.8H3.08Zm0-7.58H4.17A1.19,1.19,0,0,0,5,178a1.32,1.32,0,0,0,.29-1v-1.48a1.35,1.35,0,0,0-.29-1,1.14,1.14,0,0,0-.8-.23H3.08Z"/><path class="cls-1" d="M25.81,183.66H23.37L23,185.82H20.8l2.72-13.6h2.14l2.72,13.6H26.2Zm-.36-2.14-.86-4.87-.85,4.87Z"/><path class="cls-1" d="M45.94,186a3.17,3.17,0,0,1-2.25-.79,3.37,3.37,0,0,1-1-2.55v-1.77h2.13v1.77a1.31,1.31,0,0,0,.29,1,1.14,1.14,0,0,0,.8.24,1.09,1.09,0,0,0,.8-.24,1.27,1.27,0,0,0,.29-1v-.85a2,2,0,0,0-.72-1.56,5.77,5.77,0,0,0-.82-.5,8.29,8.29,0,0,1-1.34-.86,4.33,4.33,0,0,1-1.07-1.42,4.1,4.1,0,0,1-.36-1.71v-.33a3.35,3.35,0,0,1,1-2.54,3.17,3.17,0,0,1,2.25-.8,3.22,3.22,0,0,1,2.26.8,3.38,3.38,0,0,1,1,2.54v1.19H47V175.4a1.27,1.27,0,0,0-.29-1,1.14,1.14,0,0,0-.8-.23,1.19,1.19,0,0,0-.8.23,1.32,1.32,0,0,0-.29,1v.33a2,2,0,0,0,.72,1.54,6.66,6.66,0,0,0,.76.47,8,8,0,0,1,1.4.89,4,4,0,0,1,1.44,3.15v.85a3.41,3.41,0,0,1-1,2.55A3.21,3.21,0,0,1,45.94,186Z"/><path class="cls-1" d="M69.92,174.36H67.74v11.46H65.6V174.36H63.43v-2.14h6.49Z"/><path class="cls-1" d="M86.6,185.82H84.47v-13.6H86.6Z"/><path class="cls-1" d="M104.81,186a3.28,3.28,0,0,1-2.26-.79,3.48,3.48,0,0,1-1-2.55V175.4a3.48,3.48,0,0,1,1-2.54,3.29,3.29,0,0,1,2.26-.8,3.17,3.17,0,0,1,2.25.8,3.35,3.35,0,0,1,1,2.54v1.21h-2.14V175.4a1.32,1.32,0,0,0-.27-1,1.21,1.21,0,0,0-.81-.23,1.18,1.18,0,0,0-.8.23,1.32,1.32,0,0,0-.29,1v7.23a1.31,1.31,0,0,0,.29,1,1.13,1.13,0,0,0,.8.24,1.15,1.15,0,0,0,.81-.24,1.32,1.32,0,0,0,.27-1v-1.75H108v1.75a3.37,3.37,0,0,1-1,2.55A3.17,3.17,0,0,1,104.81,186Z"/><path class="cls-1" d="M126,186a3.25,3.25,0,0,1-2.25-.79,3.45,3.45,0,0,1-1-2.55V175.4a3.44,3.44,0,0,1,1-2.54,3.26,3.26,0,0,1,2.25-.8,3.18,3.18,0,0,1,2.26.8,3.38,3.38,0,0,1,1,2.54v1.21h-2.14V175.4a1.32,1.32,0,0,0-.27-1,1.22,1.22,0,0,0-.82-.23,1.15,1.15,0,0,0-.79.23,1.28,1.28,0,0,0-.3,1v7.23a1.26,1.26,0,0,0,.3,1,1.1,1.1,0,0,0,.79.24,1.16,1.16,0,0,0,.82-.24,1.32,1.32,0,0,0,.27-1v-1.75h2.14v1.75a3.41,3.41,0,0,1-1,2.55A3.18,3.18,0,0,1,126,186Z"/><path class="cls-1" d="M146.29,174.36v3.41h2.4v2.14h-2.4v3.77h3.49v2.14h-5.63v-13.6h5.63v2.14Z"/><path class="cls-1" d="M171.09,185.82h-2.17l-1.11-5.46h-1v5.46H164.7v-13.6h3.23a3.17,3.17,0,0,1,2.25.81,3.26,3.26,0,0,1,1,2.53V177a3.26,3.26,0,0,1-1,2.54,1.54,1.54,0,0,1-.31.25ZM169,175.56a1.31,1.31,0,0,0-.3-1,1.1,1.1,0,0,0-.79-.23h-1.09v3.86h1.09a1.15,1.15,0,0,0,.79-.23,1.28,1.28,0,0,0,.3-1Z"/><path class="cls-1" d="M188.15,185.82H186v-13.6h2.14Z"/><path class="cls-1" d="M207.79,183.66h-2.44l-.39,2.16h-2.18l2.72-13.6h2.14l2.72,13.6h-2.18Zm-.37-2.14-.85-4.87-.86,4.87Z"/><path class="cls-1" d="M244.67,186a3.28,3.28,0,0,1-2.26-.79,3.48,3.48,0,0,1-1-2.55V175.4a3.48,3.48,0,0,1,1-2.54,3.29,3.29,0,0,1,2.26-.8,3.17,3.17,0,0,1,2.25.8,3.35,3.35,0,0,1,1,2.54v1.21h-2.14V175.4a1.32,1.32,0,0,0-.27-1,1.21,1.21,0,0,0-.81-.23,1.18,1.18,0,0,0-.8.23,1.32,1.32,0,0,0-.29,1v7.23a1.31,1.31,0,0,0,.29,1,1.13,1.13,0,0,0,.8.24,1.15,1.15,0,0,0,.81-.24,1.32,1.32,0,0,0,.27-1v-1.75h2.14v1.75a3.37,3.37,0,0,1-1,2.55A3.17,3.17,0,0,1,244.67,186Z"/><path class="cls-1" d="M267.28,183.66h-2.45l-.39,2.16h-2.17l2.72-13.6h2.13l2.72,13.6h-2.17Zm-.37-2.14-.85-4.87-.86,4.87Z"/><path class="cls-1" d="M286.63,174.36v3.41h2.43v2.14h-2.43v5.91h-2.14v-13.6h5.64v2.14Z"/><path class="cls-1" d="M306.91,174.36v3.41h2.43v2.14h-2.43v5.91h-2.13v-13.6h5.63v2.14Z"/><path class="cls-1" d="M327.2,174.36v3.41h2.4v2.14h-2.4v3.77h3.49v2.14h-5.63v-13.6h5.63v2.14Z"/><path class="cls-1" d="M351.52,174.36h-2.18v11.46h-2.13V174.36H345v-2.14h6.49Z"/><path class="cls-1" d="M372,174.36H369.8v11.46h-2.14V174.36h-2.17v-2.14H372Z"/><path class="cls-1" d="M388.66,174.36v3.41h2.41v2.14h-2.41v3.77h3.5v2.14h-5.63v-13.6h5.63v2.14Z"/><path class="cls-1" d="M413.47,185.82H411.3l-1.11-5.46h-1v5.46h-2.14v-13.6h3.23a3.17,3.17,0,0,1,2.25.81,3.26,3.26,0,0,1,1,2.53V177a3.26,3.26,0,0,1-1,2.54,1.54,1.54,0,0,1-.31.25Zm-2.08-10.26a1.31,1.31,0,0,0-.29-1,1.11,1.11,0,0,0-.79-.23h-1.09v3.86h1.09a1.16,1.16,0,0,0,.79-.23,1.28,1.28,0,0,0,.29-1Z"/><path class="cls-1" d="M430.53,185.82h-2.14v-13.6h2.14Z"/><path class="cls-1" d="M450.17,183.66h-2.45l-.38,2.16h-2.18l2.72-13.6H450l2.72,13.6h-2.18Zm-.37-2.14-.85-4.87-.86,4.87Z"/></g><circle id="cerchio" class="cls-1" cx="225.6" cy="179.89" r="2.55"/></g></g></svg>