<svg xmlns="http://www.w3.org/2000/svg" viewBox="0 0 537.31 69.32">
    <defs>
        <style>.cls-1{fill:#fff;}</style>
    </defs>
    <g id="Livello_2" data-name="Livello 2">
        <g id="Livello_10" data-name="Livello 10">
            <g id="dolcemente">
                <path class="cls-1" d="M11.79,0V43.77H0l1.23-.87V.88L0,0Zm5.84,0c2,.76,6.82,3.09,7.17,12.9,0,0,.3,5.08.3,9.34s-.3,9.1-.3,9.1c-.4,9.81-5.19,11.79-7.12,12.43,8-.46,19.91-6.65,19.91-21.53C37.59,7.7,25.56.7,17.63,0Z"/>
                <path class="cls-1" d="M68.23,2.92C61.58,6.6,57.66,13.54,57.66,23.35S61.58,40.1,68.23,43.77c-10.57,0-19.9-6.42-19.9-20.42S57.66,2.92,68.23,2.92Zm5.83,40.85c6.66-3.67,10.57-10.62,10.57-20.42S80.72,6.6,74.06,2.92C84.63,2.92,94,9.34,94,23.35S84.63,43.77,74.06,43.77Z"/>
                <path class="cls-1" d="M100.91,43.77c3.21-3.32,3.8-5.48,3.8-11.67V14.59c0-6.19-.59-8.35-3.8-11.67h15.18c-3.21,3.32-3.8,5.48-3.8,11.67V32.1c0,6.19.59,8.35,3.8,11.67Zm32.69,0H121.93c6.42-1.75,9.92-5.25,11.67-11.67Z"/>
                <path class="cls-1" d="M161.79,2.92c-6.65,3.68-10.56,10.62-10.56,20.43s3.91,16.75,10.56,20.42c-10.56,0-19.9-6.42-19.9-20.42S151.23,2.92,161.79,2.92Zm14.59,0v8.75c-1.75-5.25-3.5-7-8.75-8.75Zm0,40.85h-8.75c5.25-1.75,7-3.5,8.75-8.75Z"/>
                <path class="cls-1" d="M186.42,43.77c3.21-3.32,3.79-5.48,3.79-11.67V14.59c0-6.19-.58-8.35-3.79-11.67h15.17c-3.21,3.32-3.79,5.48-3.79,11.67V32.1c0,6.19.58,8.35,3.79,11.67Zm23.35-25.21v8.75A14.14,14.14,0,0,0,201,22.94C203.58,22.76,207.78,21.07,209.77,18.56Zm6.42-15.64v8.75c-1.75-5.25-3.51-7-8.76-8.75Zm0,40.85h-8.76c5.25-1.75,7-3.5,8.76-8.75Z"/>
                <path class="cls-1" d="M236.26,43.77H225.53s3.26-1.57,5.36-13.42C232.18,42.14,236.26,43.77,236.26,43.77Zm14.13-15.23L238.83,0H225.64l1.58.88L245,43.77h4l5-20.42Zm20,14.36V.82L271.46,0h-8.64l-3,7.06V42.9l-1.23.87h13Z"/>
                <path class="cls-1" d="M281.85,43.77c3.21-3.32,3.79-5.48,3.79-11.67V14.59c0-6.19-.58-8.35-3.79-11.67H297c-3.21,3.32-3.79,5.48-3.79,11.67V32.1c0,6.19.58,8.35,3.79,11.67Zm23.34-25.21v8.75a14.1,14.1,0,0,0-8.75-4.37C299,22.76,303.21,21.07,305.19,18.56Zm6.42-15.64v8.75c-1.75-5.25-3.5-7-8.75-8.75Zm0,40.85h-8.75c5.25-1.75,7-3.5,8.75-8.75Z"/>
                <path class="cls-1" d="M335.89,43.77H318.38c5.26-1.75,7-3.5,8.76-8.75C328.89,40.27,330.64,42,335.89,43.77Zm17.46-17.51c5.95,5.67,5.95,10.92,5.95,17.51l-26-23.34c-6-5.66-6-10.92-6-17.51Zm14.7-23.34c-5.25,1.75-7,3.5-8.75,8.75-1.75-5.25-3.5-7-8.76-8.75Z"/>
                <path class="cls-1" d="M375.52,2.92h8.76c-4.49,2.16-7.18,6-8.76,11.67Zm12.26,40.85c3.21-3.32,3.79-5.48,3.79-11.67V14.59c0-6.19-.58-8.35-3.79-11.67H403c-3.21,3.32-3.8,5.48-3.8,11.67V32.1c0,6.19.59,8.35,3.8,11.67ZM415.21,2.92V14.59c-1.57-5.66-4.26-9.51-8.75-11.67Z"/>
                <path class="cls-1" d="M423.38,43.77c3.21-3.32,3.8-5.48,3.8-11.67V14.59c0-6.19-.59-8.35-3.8-11.67h15.18c-3.21,3.32-3.79,5.48-3.79,11.67V32.1c0,6.19.58,8.35,3.79,11.67Zm23.35-25.21v8.75A14.12,14.12,0,0,0,438,22.94C440.54,22.76,444.75,21.07,446.73,18.56Zm6.42-15.64v8.75c-1.75-5.25-3.5-7-8.75-8.75Zm0,40.85H444.4c5.25-1.75,7-3.5,8.75-8.75Z"/>
            </g>
            <g id="payoff">
                <path class="cls-1" d="M3,68.71H.81V55.09H4a3.17,3.17,0,0,1,2.25.81,3.27,3.27,0,0,1,1,2.53v1.48a3.27,3.27,0,0,1-1,2.55,3.17,3.17,0,0,1-2.25.8H3Zm0-7.59H4a1.16,1.16,0,0,0,.79-.23,1.29,1.29,0,0,0,.3-1V58.43a1.33,1.33,0,0,0-.3-1A1.16,1.16,0,0,0,4,57.23H3Z"/>
                <path class="cls-1" d="M25.71,66.55H23.26l-.39,2.16H20.69l2.73-13.62h2.14l2.72,13.62H26.1Zm-.37-2.14-.85-4.89-.86,4.89Z"/>
                <path class="cls-1" d="M45.87,68.86a3.17,3.17,0,0,1-2.25-.79,3.39,3.39,0,0,1-1-2.55V63.75h2.14v1.77a1.28,1.28,0,0,0,.3,1,1.1,1.1,0,0,0,.79.23,1.08,1.08,0,0,0,.8-.23,1.24,1.24,0,0,0,.29-1v-.86a2.07,2.07,0,0,0-.72-1.56,6.51,6.51,0,0,0-.81-.5,8,8,0,0,1-1.35-.86A4.44,4.44,0,0,1,43,60.32a4.1,4.1,0,0,1-.37-1.71v-.33a3.36,3.36,0,0,1,1-2.55,3.58,3.58,0,0,1,4.51,0,3.35,3.35,0,0,1,1,2.55v1.19H47V58.28a1.22,1.22,0,0,0-.29-1,1.08,1.08,0,0,0-.8-.24,1.1,1.1,0,0,0-.79.24,1.26,1.26,0,0,0-.3,1v.33a2,2,0,0,0,.72,1.54,6.48,6.48,0,0,0,.76.46,8.15,8.15,0,0,1,1.4.9,4.07,4.07,0,0,1,1.44,3.15v.86a3.38,3.38,0,0,1-1,2.55A3.18,3.18,0,0,1,45.87,68.86Z"/>
                <path class="cls-1" d="M69.89,57.23H67.71V68.71H65.57V57.23H63.39V55.09h6.5Z"/>
                <path class="cls-1" d="M86.6,68.71H84.46V55.09H86.6Z"/>
                <path class="cls-1" d="M104.84,68.86a3.26,3.26,0,0,1-2.26-.79,3.45,3.45,0,0,1-1-2.55V58.28a3.45,3.45,0,0,1,1-2.55,3.27,3.27,0,0,1,2.26-.8,3.17,3.17,0,0,1,2.25.8,3.36,3.36,0,0,1,1,2.55v1.21h-2.14V58.28a1.3,1.3,0,0,0-.28-1,1.15,1.15,0,0,0-.81-.24,1.13,1.13,0,0,0-.8.24,1.26,1.26,0,0,0-.29,1v7.24a1.28,1.28,0,0,0,.29,1,1.13,1.13,0,0,0,.8.23,1.15,1.15,0,0,0,.81-.23,1.32,1.32,0,0,0,.28-1V63.77h2.14v1.75a3.39,3.39,0,0,1-1,2.55A3.17,3.17,0,0,1,104.84,68.86Z"/>
                <path class="cls-1" d="M126.09,68.86a3.26,3.26,0,0,1-2.26-.79,3.45,3.45,0,0,1-1-2.55V58.28a3.45,3.45,0,0,1,1-2.55,3.27,3.27,0,0,1,2.26-.8,3.17,3.17,0,0,1,2.25.8,3.36,3.36,0,0,1,1,2.55v1.21h-2.14V58.28a1.3,1.3,0,0,0-.28-1,1.15,1.15,0,0,0-.81-.24,1.13,1.13,0,0,0-.8.24,1.26,1.26,0,0,0-.29,1v7.24a1.28,1.28,0,0,0,.29,1,1.13,1.13,0,0,0,.8.23,1.15,1.15,0,0,0,.81-.23,1.32,1.32,0,0,0,.28-1V63.77h2.14v1.75a3.39,3.39,0,0,1-1,2.55A3.17,3.17,0,0,1,126.09,68.86Z"/>
                <path class="cls-1" d="M146.38,57.23v3.42h2.41v2.14h-2.41v3.78h3.5v2.14h-5.64V55.09h5.64v2.14Z"/>
                <path class="cls-1" d="M171.23,68.71h-2.18l-1.11-5.47h-1v5.47h-2.14V55.09h3.23a3.21,3.21,0,0,1,2.26.81,3.26,3.26,0,0,1,1,2.53v1.46a3.27,3.27,0,0,1-1,2.55,2.66,2.66,0,0,1-.31.26Zm-2.08-10.28a1.37,1.37,0,0,0-.29-1,1.19,1.19,0,0,0-.8-.23H167V61.1h1.09a1.19,1.19,0,0,0,.8-.23,1.33,1.33,0,0,0,.29-1Z"/>
                <path class="cls-1" d="M188.32,68.71h-2.14V55.09h2.14Z"/>
                <path class="cls-1" d="M208,66.55h-2.45l-.39,2.16H203l2.72-13.62h2.14l2.73,13.62h-2.18Zm-.37-2.14-.86-4.89-.85,4.89Z"/>
                <path class="cls-1" d="M244.92,68.86a3.25,3.25,0,0,1-2.25-.79,3.45,3.45,0,0,1-1-2.55V58.28a3.45,3.45,0,0,1,1-2.55,3.26,3.26,0,0,1,2.25-.8,3.18,3.18,0,0,1,2.26.8,3.35,3.35,0,0,1,1,2.55v1.21H246V58.28a1.31,1.31,0,0,0-.27-1,1.16,1.16,0,0,0-.82-.24,1.1,1.1,0,0,0-.79.24,1.26,1.26,0,0,0-.3,1v7.24a1.28,1.28,0,0,0,.3,1,1.1,1.1,0,0,0,.79.23,1.17,1.17,0,0,0,.82-.23,1.32,1.32,0,0,0,.27-1V63.77h2.14v1.75a3.38,3.38,0,0,1-1,2.55A3.18,3.18,0,0,1,244.92,68.86Z"/>
                <path class="cls-1" d="M267.57,66.55h-2.45l-.39,2.16h-2.18l2.73-13.62h2.14l2.72,13.62H268Zm-.36-2.14-.86-4.89-.86,4.89Z"/>
                <path class="cls-1" d="M287,57.23v3.42h2.43v2.14H287v5.92h-2.14V55.09h5.64v2.14Z"/>
                <path class="cls-1" d="M307.27,57.23v3.42h2.43v2.14h-2.43v5.92h-2.14V55.09h5.64v2.14Z"/>
                <path class="cls-1" d="M327.59,57.23v3.42H330v2.14h-2.41v3.78h3.5v2.14h-5.64V55.09h5.64v2.14Z"/>
                <path class="cls-1" d="M352,57.23h-2.18V68.71h-2.14V57.23h-2.18V55.09H352Z"/>
                <path class="cls-1" d="M372.44,57.23h-2.18V68.71h-2.14V57.23h-2.18V55.09h6.5Z"/>
                <path class="cls-1" d="M389.16,57.23v3.42h2.41v2.14h-2.41v3.78h3.5v2.14H387V55.09h5.64v2.14Z"/>
                <path class="cls-1" d="M414,68.71h-2.18l-1.11-5.47h-1v5.47H407.6V55.09h3.24a3.17,3.17,0,0,1,2.25.81,3.27,3.27,0,0,1,1,2.53v1.46a3.27,3.27,0,0,1-1,2.55,2,2,0,0,1-.31.26Zm-2.08-10.28a1.33,1.33,0,0,0-.3-1,1.16,1.16,0,0,0-.79-.23h-1.09V61.1h1.09a1.16,1.16,0,0,0,.79-.23,1.29,1.29,0,0,0,.3-1Z"/>
                <path class="cls-1" d="M431.09,68.71H429V55.09h2.14Z"/>
                <path class="cls-1" d="M450.77,66.55h-2.46l-.38,2.16h-2.18l2.72-13.62h2.14l2.72,13.62h-2.17Zm-.37-2.14-.86-4.89-.86,4.89Z"/>
            </g>
            <g id="cerchio">
                <circle class="cls-1" cx="225.83" cy="62.77" r="2.55"/>
            </g>
            <path class="cls-1" d="M511.15,61.25h-5.24s1.59-.76,2.62-6.54C509.15,60.46,511.15,61.25,511.15,61.25ZM518,53.83,512.4,39.91H506l.76.43,8.66,20.91h1.93l2.42-10Zm9.73,7V40.31l.55-.4h-4.22l-1.48,3.44V60.83l-.59.42h6.31Z"/>
            <path class="cls-1" d="M494.63,39.84a10.18,10.18,0,0,0-2.15.22V61a10.89,10.89,0,0,0,2.15.21,10.69,10.69,0,1,0,0-21.37Z"/>
            <path class="cls-1" d="M537.31,69.32h-67.4V1.92h67.4Zm-65.4-2h63.4V3.92h-63.4Z"/>
        </g>
    </g>
</svg>